<svg width="1345" height="872" viewBox="0 0 1345 872" fill="none" xmlns="http://www.w3.org/2000/svg">
<path d="M644.018 398.153H547.742V438.947H644.018V398.153Z" fill="black"/>
<path d="M619.397 266.364C619.397 266.364 528.72 311.906 580.985 390.889C580.985 390.889 630.022 421.581 610.734 473.266C591.446 524.951 624.485 582.071 668.495 606.62C668.495 606.62 701.513 641.98 685.004 696.392C668.495 750.805 685.556 743.37 685.556 743.37H903.219L693.198 405.255L706.948 348.134L619.397 266.364Z" fill="black"/>
<path d="M866.952 688.452L931.394 434.128L700.492 371.896L668.475 386.666L866.952 688.452Z" fill="black"/>
<path d="M823.636 48.0058C820.895 47.5014 818.098 47.3655 815.32 47.6017C818.671 35.2361 821.082 17.7585 816.791 7.85796C810.396 -6.93229 752.778 -0.587843 733.571 24.7293C718.084 45.1973 777.378 55.9465 801.038 59.341C798.055 74.3535 779.932 70.2922 774.333 78.5966C768.735 86.9009 771.514 91.144 774.333 100.822C777.153 110.501 768.694 107.773 761.666 113.35C754.637 118.926 745.463 126.584 758.131 132.161L828.56 144.688C829.944 142.157 830.929 139.431 831.482 136.606C831.952 136.747 832.401 136.889 832.871 136.99C834.732 137.497 836.644 137.802 838.572 137.899H839.491C844.303 137.976 848.954 136.184 852.445 132.908C864.193 122.119 863.56 102.277 861.435 88.9012H873.694C873.694 88.9012 890.551 45.9045 823.636 48.0058ZM848.277 128.645C845.753 131.042 842.331 132.287 838.837 132.08C836.307 131.933 833.817 131.387 831.461 130.463C830.958 128.201 829.698 126.172 827.886 124.705C819.427 117.734 812.398 112.158 818.017 106.52C823.636 100.883 822.246 93.993 818.017 88.3355L817.833 88.2345C816.89 86.8658 817.054 85.0289 818.226 83.8455C819.398 82.662 821.252 82.4609 822.655 83.365L831.339 89.0831H855.162C857.247 101.226 858.248 119.492 848.277 128.645Z" fill="black"/>
<path d="M1326.28 584.678C1314.66 540.853 1289.04 509.777 1254.12 497.149C1219.2 484.521 1179.36 491.936 1141.88 518.001C1134.63 523.062 1127.74 528.604 1121.25 534.589L1065.2 379.413C1054.36 349.563 1028.49 327.513 997.042 321.302C993.171 320.535 989.254 320.022 985.314 319.767L988.767 321.262L984.558 325.808C987.112 325.95 989.646 326.212 992.138 326.596C1023.03 331.312 1048.85 352.359 1059.42 381.453L1096.08 482.945L1094.79 482.197L939.894 740.258H592.304C594.225 735.793 596.064 731.207 597.78 726.559C620.868 664.105 618.968 600.842 597.187 555.683L613.226 536.286L608.486 532.447L594.184 549.763C580.842 525.133 561.207 506.585 536.218 497.533C465.074 471.832 376.971 532.71 339.785 633.292C324.767 673.925 320.333 714.921 325.074 751.048C332.061 804.309 358.991 846.983 401.367 862.319C404.857 863.574 408.418 864.627 412.032 865.471C414.075 865.996 416.119 866.42 418.305 866.764C423.953 867.727 429.675 868.207 435.407 868.198C443.657 868.181 451.88 867.259 459.925 865.45C483.585 860.217 507.164 847.67 528.536 829.242C552.727 808.411 574.12 780.063 589.627 746.401H943.388L1098.1 488.622L1116.49 539.236C1090.97 564.109 1070.13 596.781 1056.4 633.938C1038.83 681.481 1035.62 729.509 1044.59 769.758C1054.52 814.351 1079.32 849.387 1116.1 863.733L1117.26 864.177L1118.43 864.602C1125.22 867.01 1132.26 868.676 1139.41 869.572C1143.78 870.122 1148.19 870.399 1152.59 870.401C1157.37 870.396 1162.15 870.078 1166.89 869.451C1175.57 868.327 1184.11 866.295 1192.35 863.389C1242.94 845.629 1291.08 795.702 1316.17 727.812C1334.21 678.915 1337.83 628.079 1326.28 584.678ZM592.937 560.836C612.879 604.297 614.105 664.751 592.018 724.498C589.975 729.873 587.932 735.147 585.623 740.279H444.458L592.937 560.836ZM403.451 856.641C335.494 832.071 309.463 732.823 345.526 635.393C376.031 552.855 441.393 497.795 501.995 497.795C512.942 497.763 523.808 499.644 534.093 503.352C558.407 512.141 577.348 530.488 590.016 554.895L431.524 746.32H582.864C543.063 830.576 466.177 879.311 403.451 856.641ZM1310.39 725.711C1282.01 802.491 1223.65 855.792 1166.81 863.47C1162.15 864.113 1157.46 864.437 1152.75 864.44C1148.4 864.445 1144.05 864.155 1139.74 863.571C1133.14 862.685 1126.66 861.1 1120.41 858.843C1051.94 834.092 1025.77 734.096 1062.06 635.959C1075.09 600.64 1094.75 569.484 1118.65 545.48L1162.32 666.388L1168.1 664.368L1123.48 540.812C1130.34 534.34 1137.67 528.377 1145.42 522.971C1169.94 505.938 1195.33 497.23 1219.53 497.23C1230.61 497.199 1241.6 499.1 1252.01 502.847C1284.99 514.768 1309.22 544.369 1320.36 586.214C1331.58 628.443 1328.04 677.986 1310.39 725.711V725.711Z" fill="black"/>
<path d="M956.464 332.637L950.335 328.596V382.443H956.464V332.637Z" fill="black"/>
<path d="M1078.22 434.775H931.108V440.836H1078.22V434.775Z" fill="black"/>
<path d="M878.843 772.344L859.249 750.219L830.092 762.625L821.92 746.34L818.855 740.278L817.731 738.056L784.018 740.258L773.659 740.945L774.558 743.289L775.702 746.32L796.747 801.763L819.876 796.085L814.523 781.942L828.539 786.569L878.843 772.344ZM811.703 791.842L800.629 794.59L782.343 746.461L784.161 746.34L813.951 744.319L814.952 746.34L827.211 770.445L857.696 757.513L867.912 769.152L828.662 780.244L804.266 772.162L811.703 791.842Z" fill="black"/>
<path d="M885.782 773.14L777.468 811.87L784.005 829.739L892.32 791.009L885.782 773.14Z" fill="black"/>
<path d="M551.123 292.874H356.917V298.935H551.123V292.874Z" fill="black"/>
<path d="M523.356 358.298H412.39V364.36H523.356V358.298Z" fill="black"/>
<path d="M854.713 232.823L832.585 135.838L826.598 137.172L849.298 236.521L945.533 296.53L923.61 322.009L807.617 280.952L791.271 214.921L780.34 170.813L774.374 172.268L784.59 213.325C730.752 282.75 635.968 253.958 615.74 246.765L779.196 127.554L775.559 122.664L601.989 249.25L713.405 361.652L798.872 270.93L802.53 285.7L925.592 329.162L954.728 295.217L854.713 232.823ZM713.221 352.721L614.412 253.049C634.354 260.028 655.214 264.112 676.341 265.172C679.066 265.293 681.79 265.354 684.514 265.354C727.054 265.354 762.013 250.119 786.409 220.902L797.013 263.717L713.221 352.721Z" fill="black"/>
<path d="M1073.81 362.42L1108.09 455.122H1238.06L1281.64 366.845L1073.81 362.42ZM1162.38 370.381L1160.97 371.472L1169.9 382.746L1131.77 412.448L1106.82 369.189L1162.38 370.381ZM1183.89 449.06H1146.52L1151.3 446.353L1134.84 417.782L1173.66 387.474L1203.45 425.056L1182.65 447.989L1183.89 449.06ZM1207.29 429.845L1222.53 449.06H1189.84L1207.29 429.845ZM1082.65 368.684L1104.37 369.148L1100.9 371.169L1126.91 416.307L1108.36 430.774L1112.16 435.523L1129.99 421.642L1145.83 449.121H1112.38L1082.65 368.684ZM1234.24 449.06H1224.02L1227.99 445.989L1211.54 425.258L1242.7 390.707L1238.12 386.666L1207.59 420.348L1178.5 383.676L1182.59 380.524L1178.81 375.755L1174.72 378.907L1167.98 370.421L1271.83 372.624L1234.24 449.06Z" fill="black"/>
<path d="M715.264 57.1186C660.058 2.53598 570.563 2.53598 515.357 57.1186L461.641 110.238L616.537 263.414L620.868 259.131L503.956 143.516L580.147 83.5875C598.311 69.3515 602.181 43.6176 588.994 24.77C597.676 23.0829 606.504 22.237 615.352 22.2444C651.215 22.1443 685.629 36.2289 710.933 61.3617L775.334 125.089L779.666 120.806L715.264 57.1186ZM590.445 53.2796C589.439 63.3293 584.342 72.5418 576.326 78.7989L499.604 139.192L470.305 110.238L519.689 61.3617C536.964 44.215 558.645 32.0587 582.395 26.2046C588.572 33.8325 591.464 43.5591 590.445 53.2796Z" fill="black"/>
<path d="M815.422 452.271L763.038 525.504L768.062 529.018L820.446 455.785L815.422 452.271Z" fill="white"/>
<path d="M925.592 443.504C849.707 442.695 734.491 441.968 728.116 443.322C728.577 443.202 728.994 442.957 729.321 442.615L724.99 438.331C726.338 436.998 727.237 436.108 827.15 436.654C875.942 436.917 925.224 437.442 925.612 437.442L925.592 443.504Z" fill="white"/>
<path d="M868.423 693.18L688.948 412.327L710.34 395.88L714.099 400.669L697.1 413.741L873.612 689.947L868.423 693.18Z" fill="white"/>
<path d="M609.733 507.696L607.69 501.978C635.988 492.259 655.419 475.933 658.463 459.405C659.955 451.04 656.869 443.483 649.534 437.543C623.116 416.166 639.114 368.845 650.985 349.226C652.1 347.394 652.289 345.153 651.496 343.164C646.388 327 602.03 304.431 585.357 297.076L587.871 291.54C590.425 292.671 650.372 319.403 657.339 341.346C658.641 344.961 658.244 348.961 656.257 352.257C642.649 374.664 632.371 415.721 653.416 432.775C662.447 440.069 666.37 449.888 664.491 460.395C661.058 479.166 640.074 497.25 609.733 507.696Z" fill="white"/>
<path d="M695.384 657.417L692.769 651.941C693.136 651.779 728.525 635.171 740.722 619.087C742.731 616.891 743.308 613.761 742.214 611.005C738.291 601.125 715.468 591.547 695.67 587.971C692.462 587.405 688.11 586.233 687.129 582.637C685.924 578.212 690.705 574.211 697.345 568.655C706.315 561.118 717.471 551.743 714.651 541.479C714.228 539.96 713.085 538.74 711.586 538.206C696.916 532.144 647.368 556.673 629.511 566.634L626.507 561.361C633.332 557.542 693.933 524.325 713.936 532.609C717.22 533.874 719.695 536.614 720.597 539.984C724.459 553.966 711.116 565.18 701.37 573.363C698.285 575.949 694.158 579.424 693.3 581.081C694.423 581.607 695.622 581.955 696.855 582.112C714.386 585.264 742.48 595.003 747.935 608.884C749.792 613.583 748.915 618.91 745.647 622.785C732.509 640.02 696.896 656.73 695.384 657.417Z" fill="white"/>
<path d="M882.112 745.814C881.826 745.37 853.875 701.201 833.566 691.159C827.64 688.23 826.149 688.714 826.088 688.755C825.209 690.189 827.375 698.474 828.948 704.535C830.897 711.596 832.479 718.752 833.688 725.973C834.301 730.014 834.587 734.702 831.175 736.621C826.557 739.207 820.428 734.176 808.21 724.175C794.377 712.88 775.518 697.382 755.086 691.341C746.791 688.896 740.784 689.482 737.188 693.099C727.912 702.434 734.307 730.317 737.556 740.278L731.712 742.137C731.181 740.541 719.065 702.717 732.795 688.856C738.107 683.501 746.198 682.39 756.843 685.542C778.399 691.927 797.891 707.869 812.112 719.507C817.935 724.276 825.045 730.095 827.906 731.065C827.985 729.672 827.896 728.274 827.64 726.902C826.449 719.879 824.901 712.92 823.002 706.051C819.958 694.372 818.139 687.34 822.328 683.986C825.842 681.178 831.359 683.299 836.304 685.744C858.166 696.554 886.137 740.743 887.384 742.622L882.112 745.814Z" fill="white"/>
<path d="M882.173 622.563C876.044 618.198 822.43 579.404 825.229 559.805C825.658 556.815 827.518 552.794 833.893 550.531C837.713 549.177 841.779 547.803 845.968 546.389C864.152 540.327 891.613 530.972 892.716 523.355C893.002 521.334 890.673 519.314 888.63 517.879C877.597 510.242 872.611 499.149 875.901 489.592C877.944 483.874 885.953 470.74 918.277 472.256L917.97 478.317C898.437 477.408 884.871 482.358 881.704 491.572C879.313 498.482 883.399 506.867 892.144 512.909C897.109 516.344 899.316 520.142 898.744 524.203C897.232 534.73 877.638 542.085 847.889 552.127C843.802 553.541 839.716 554.895 835.915 556.168C832.115 557.441 831.441 559.34 831.257 560.593C829.541 572.716 863.744 601.933 885.708 617.572L882.173 622.563Z" fill="white"/>
<path d="M756.884 423.48C753.513 423.561 750.19 422.669 747.322 420.914C733.755 412.347 739.149 385.898 739.476 384.787L745.463 386.02C744.094 392.546 742.316 410.569 750.612 415.802C755.904 419.136 767.836 418.914 794.684 399.012L798.361 403.861C780.667 416.974 766.957 423.48 756.884 423.48Z" fill="white"/>
<path d="M951.785 298.713L945.227 295.884L944.961 296.268L941.386 301.38L927.737 320.999L930.761 323.019L950.335 335.931L956.464 339.972L970.93 349.509L992.139 326.636L997.042 321.342L999.086 319.14L951.785 298.713ZM988.767 321.262L984.558 325.808L969.97 341.548L956.464 332.637L950.335 328.596L936.339 319.362L946.248 305.219L947.433 303.501H947.638L985.335 319.665L988.767 321.262Z" fill="black"/>
<path d="M344.187 37.0923L223.217 122.744L309.884 242.424L430.853 156.773L344.187 37.0923Z" fill="#C3DA14"/>
<path d="M1113.79 109.978L1058.77 148.931L1098.19 203.361L1153.2 164.408L1113.79 109.978Z" fill="#C3DA14"/>
<path d="M354.21 871.592C5.43493 871.592 1.77759 869.39 0 868.339L3.14654 863.146C2.98036 863.044 2.8019 862.963 2.6153 862.904C22.087 867.693 889.182 864.924 1345 862.702V868.763C1341.67 868.763 1007.87 870.36 677.281 871.148C545.597 871.431 439.554 871.592 354.21 871.592Z" fill="black"/>
<path d="M327.648 749.734C327.648 749.734 285.415 769.697 281.145 801.359C276.875 833.02 259.793 788.69 234.151 795.014C208.509 801.339 221.34 847.791 189.323 835.122C157.306 822.453 127.435 845.669 89.0224 866.783H421.983C421.983 866.783 348.571 862.722 327.648 749.734Z" fill="black"/>
<path d="M889.345 864.662C889.345 864.662 929.903 858.338 946.964 841.446C964.024 824.555 985.396 864.662 993.957 851.993C1002.52 839.325 998.227 807.683 1004.64 811.906C1011.06 816.129 1021.66 851.993 1034.41 839.264C1047.16 826.535 1020.42 795.54 1047.69 765.697C1047.69 765.697 1063.08 854.943 1129.85 863.995L889.345 864.662Z" fill="black"/>
<path d="M367 202.273L323.173 136.283L261.612 176.269L225.427 199.768L289.154 295.743L386.881 232.278L367 202.273ZM233.906 201.505L265.167 181.199L321.335 144.688L361.933 205.809L378.279 230.5L290.789 287.317L233.906 201.505Z" fill="black"/>
</svg>
