<svg width="50" height="50" viewBox="0 0 50 50" fill="none" xmlns="http://www.w3.org/2000/svg">
<g clip-path="url(#clip0_203_393)">
<path d="M25 41.1911C34.9718 41.1911 43.0556 33.1074 43.0556 23.1356C43.0556 13.1637 34.9718 5.08 25 5.08C15.0282 5.08 6.94444 13.1637 6.94444 23.1356C6.94444 33.1074 15.0282 41.1911 25 41.1911Z" fill="#9058FF"/>
<path d="M33.06 25.9389C32.9706 25.9389 32.8811 25.9172 32.7989 25.8733C32.6178 25.7772 32.5044 25.5883 32.5044 25.3833V21.6206H29.5044C29.1972 21.6206 28.9489 21.3717 28.9489 21.065V7.72889C28.9489 7.42222 29.1972 7.17333 29.5044 7.17333H49.4444C49.7517 7.17333 50 7.42222 50 7.72889V21.065C50 21.3717 49.7517 21.6206 49.4444 21.6206H39.6439L33.37 25.8444C33.2767 25.9072 33.1683 25.9383 33.06 25.9389ZM30.0594 20.5094H33.0594C33.3667 20.5094 33.615 20.7583 33.615 21.065V24.34L39.1633 20.6044C39.255 20.5428 39.3628 20.51 39.4739 20.51H48.8889V8.28445H30.0594V20.5094Z" fill="black"/>
<path d="M35.6 49.7894H14.5494C14.2428 49.7894 13.9939 49.5411 13.9939 49.2339V35.155C13.9939 34.8478 14.2428 34.5994 14.5494 34.5994H35.6C35.9072 34.5994 36.1556 34.8478 36.1556 35.155V49.2339C36.1556 49.5411 35.9072 49.7894 35.6 49.7894ZM15.105 48.6783H35.0444V35.7106H15.105V48.6783Z" fill="black"/>
<path d="M25.0744 45.1567C24.9417 45.1567 24.8089 45.1094 24.7033 45.0144L17.6367 38.6722C17.4083 38.4672 17.3894 38.1161 17.5944 37.8878C17.7983 37.66 18.15 37.6394 18.3789 37.8456L25.0744 43.8544L31.77 37.8456C31.9978 37.6406 32.3494 37.6589 32.5544 37.8878C32.7594 38.1161 32.7406 38.4672 32.5122 38.6722L25.4456 45.0144C25.34 45.1094 25.2072 45.1567 25.0744 45.1567Z" fill="black"/>
<path d="M15.2896 25.9389C12.1138 25.9389 8.5319 24.0903 5.20051 20.7341C1.81465 17.3731 -0.0338756 13.7601 0.000356434 10.5625C0.0190284 8.73574 0.661656 7.12995 1.80687 6.03919C1.86756 5.97851 1.94224 5.9116 2.01849 5.84936C2.09162 5.78712 2.16786 5.7311 2.24566 5.67664C2.34992 5.60351 2.42305 5.55994 2.49774 5.51638C2.50085 5.51482 2.54908 5.48526 2.5522 5.48526C2.62377 5.44636 2.69535 5.41212 2.76692 5.37789L2.84472 5.3421C2.91163 5.3141 2.9801 5.28764 3.05012 5.26275L3.13725 5.23318C3.20416 5.2114 3.27418 5.19273 3.3442 5.17406L3.44223 5.14916C3.51225 5.13671 3.57604 5.12582 3.6414 5.11493L3.75654 5.09937C3.81878 5.09159 3.88258 5.08536 3.94637 5.0807L4.17666 5.07292L4.25446 5.07447C4.29803 5.07447 4.34315 5.07603 4.38828 5.07914C4.4474 5.08381 4.50498 5.08692 4.56255 5.0947C4.61078 5.09937 4.65591 5.10715 4.70259 5.11493C4.75549 5.12271 4.80995 5.13204 4.86597 5.14449L4.99978 5.17717C5.08225 5.19895 5.12582 5.20984 5.17094 5.22385C5.21918 5.23941 5.2643 5.25497 5.30943 5.27208C5.38878 5.30009 5.42924 5.31565 5.4697 5.33277C5.51793 5.353 5.56772 5.37634 5.61596 5.39968C5.68598 5.4308 5.72021 5.44791 5.75444 5.46503C5.80268 5.48992 5.8478 5.51793 5.89448 5.54594L5.94583 5.57706L6.02986 5.62841C6.08587 5.66575 6.13566 5.7031 6.1839 5.742C6.18857 5.74511 6.28971 5.82135 6.29438 5.82446C6.38151 5.8976 6.46398 5.97073 6.54334 6.04853L8.33429 7.83948C8.41521 7.9204 8.48989 8.00442 8.55991 8.09C8.57547 8.10867 8.59414 8.13357 8.61282 8.15846C8.67817 8.2456 8.71863 8.2985 8.75441 8.35296C8.77153 8.37786 8.7902 8.41054 8.80887 8.44166L8.83999 8.49456C8.868 8.53968 8.89445 8.58481 8.91935 8.63149C8.93646 8.66416 8.95514 8.70306 8.97381 8.74196C9.01426 8.82754 9.03605 8.87267 9.05628 8.91935C9.07184 8.95825 9.08584 8.99715 9.09984 9.03605L9.12007 9.09206C9.13563 9.13252 9.14964 9.17453 9.16208 9.21499C9.17609 9.26011 9.18854 9.30835 9.20098 9.35658C9.22121 9.43127 9.2321 9.47484 9.24144 9.51841C9.25233 9.57287 9.26167 9.62733 9.271 9.68179C9.27878 9.73002 9.28501 9.77515 9.29123 9.82183C9.29746 9.88096 9.30212 9.94008 9.30679 9.99766C9.30991 10.0412 9.31146 10.0863 9.31302 10.1315C9.31302 10.1937 9.31302 10.2544 9.31146 10.3151L9.30524 10.4364C9.30212 10.5018 9.2959 10.5656 9.28812 10.6294L9.271 10.7445C9.26167 10.8099 9.24922 10.8752 9.23366 10.9421L9.20876 11.0464C9.1932 11.1102 9.17453 11.1787 9.15275 11.2456C9.15119 11.2518 9.13096 11.3094 9.12785 11.3171C9.09673 11.4074 9.07028 11.4774 9.04072 11.5474C9.0376 11.5521 9.01738 11.5972 9.01426 11.6019C8.97381 11.6906 8.93958 11.7622 8.90068 11.8322C8.89756 11.84 8.87734 11.8742 8.87267 11.8804C8.82443 11.9629 8.78086 12.036 8.73263 12.1076C8.65172 12.2212 8.5957 12.2959 8.53502 12.369C8.47278 12.4437 8.40587 12.5184 8.33429 12.59L7.23576 13.6885L12.2492 18.7019L13.3493 17.6018C13.4209 17.5303 13.4955 17.4649 13.5702 17.4011C13.6434 17.3404 13.7196 17.2844 13.7959 17.2299C13.9001 17.1568 13.9748 17.1117 14.0479 17.0697C14.051 17.0681 14.1024 17.037 14.1071 17.0354C14.1755 16.9981 14.2471 16.9639 14.3187 16.9312L14.3871 16.8985C14.4618 16.8674 14.5318 16.8409 14.6019 16.816L14.689 16.7865C14.7575 16.7647 14.8275 16.746 14.8959 16.7274L15.0002 16.7025C15.0609 16.6885 15.1278 16.6776 15.1931 16.6667L15.3036 16.6511C15.3721 16.6433 15.4359 16.6371 15.4997 16.6324L15.73 16.6247L15.9354 16.6324C15.9991 16.6371 16.0567 16.6418 16.1143 16.648C16.1625 16.6527 16.2077 16.6604 16.2543 16.6682C16.3088 16.676 16.3633 16.6853 16.4177 16.6962C16.4706 16.7071 16.5157 16.7196 16.5624 16.732C16.6262 16.7476 16.676 16.7616 16.7242 16.7771C16.7725 16.7927 16.8207 16.8098 16.8705 16.8285C16.9405 16.8534 16.9794 16.8674 17.0199 16.8845C17.0697 16.9047 17.1179 16.9281 17.1677 16.9514C17.2346 16.9825 17.272 17.0012 17.3062 17.0199C17.3529 17.0448 17.398 17.0712 17.4431 17.0992L17.496 17.1304L17.5832 17.1848C17.6361 17.2206 17.689 17.2595 17.7403 17.3C17.745 17.3046 17.843 17.3778 17.8477 17.3809C17.9317 17.4509 18.0142 17.524 18.0935 17.6034L19.8845 19.3943C19.9638 19.4737 20.0385 19.5577 20.1085 19.6417C20.1272 19.6651 20.1459 19.69 20.163 19.7133C20.2284 19.7989 20.2673 19.8518 20.303 19.9047C20.3217 19.9312 20.3404 19.9623 20.3591 19.995L20.3933 20.0525C20.4197 20.0961 20.4446 20.1381 20.468 20.1832C20.4851 20.2159 20.5022 20.2501 20.5178 20.2844C20.5613 20.3762 20.5847 20.4229 20.6034 20.4711C20.6205 20.5115 20.636 20.5536 20.65 20.594C20.6796 20.6734 20.6952 20.7185 20.7092 20.7636C20.7247 20.815 20.7372 20.8648 20.7512 20.9146C20.7652 20.9721 20.7776 21.0188 20.7885 21.0655C20.801 21.1246 20.8103 21.1806 20.8181 21.2366L20.8383 21.3751C20.8445 21.4343 20.8492 21.4934 20.8539 21.5525C20.857 21.5945 20.8585 21.6396 20.8601 21.6848C20.8616 21.7455 20.8616 21.8061 20.8585 21.8684L20.8523 21.9897C20.8476 22.0551 20.8414 22.1189 20.8336 22.1827L20.8165 22.2994C20.8072 22.3616 20.7947 22.427 20.7807 22.4939L20.7605 22.581C20.7387 22.6666 20.7201 22.7351 20.6983 22.802C20.6967 22.8066 20.678 22.8611 20.6765 22.8658C20.6438 22.9591 20.6174 23.0292 20.5878 23.0992C20.5847 23.1054 20.566 23.1459 20.5629 23.1521C20.5209 23.2454 20.4851 23.317 20.4462 23.387C20.4431 23.3933 20.4213 23.4306 20.4182 23.4368C20.37 23.5193 20.3264 23.5909 20.2781 23.6624C20.1988 23.776 20.1428 23.8507 20.0821 23.9223C20.0199 23.9985 19.9529 24.0732 19.8814 24.1433C18.7891 25.2978 17.1521 25.9389 15.2896 25.9389ZM19.6464 22.4597C19.6604 22.4145 19.6729 22.3679 19.6853 22.3212L19.7024 22.2496C19.7102 22.2107 19.7195 22.1671 19.7258 22.122L19.7367 22.0473C19.7413 22.0022 19.746 21.9602 19.7491 21.9166L19.7538 21.8373C19.7553 21.7906 19.7553 21.7501 19.7538 21.7097L19.7491 21.6225C19.746 21.5821 19.7444 21.5432 19.7398 21.5043L19.7258 21.4109C19.7195 21.3689 19.7133 21.3331 19.7055 21.2973L19.5422 20.8119C19.5406 20.8103 19.5173 20.7574 19.5157 20.7558L19.4908 20.7045L19.4037 20.5567C19.3586 20.4867 19.3337 20.454 19.3088 20.4229L19.2652 20.3653C19.2045 20.289 19.1547 20.233 19.1018 20.1801L17.3109 18.3892C17.258 18.3363 17.2019 18.2865 17.1444 18.2398L17.0806 18.1916C17.037 18.1573 17.0043 18.1324 16.9716 18.1106C16.9685 18.1091 16.8954 18.0655 16.8923 18.0624L16.3026 17.8119L15.9851 17.7512C15.9462 17.7465 15.9058 17.7434 15.8669 17.7419L15.7798 17.7372L15.5712 17.7419C15.5292 17.745 15.4857 17.7496 15.4421 17.7543L15.3674 17.7652C15.3223 17.773 15.2787 17.7808 15.2336 17.7901L15.1807 17.8026C15.1216 17.8181 15.0764 17.8306 15.0313 17.8446L14.9737 17.8648C14.9255 17.8819 14.8773 17.899 14.8306 17.9193C14.7357 17.9628 14.6874 17.9862 14.6408 18.0126C14.5552 18.0624 14.5069 18.092 14.4587 18.1246C14.384 18.1775 14.3327 18.2149 14.2844 18.2569C14.2331 18.2989 14.1833 18.3425 14.1351 18.3907L12.9245 19.6013C12.5619 19.9623 11.9364 19.9607 11.577 19.6013L6.33794 14.3622C5.96606 13.9904 5.96606 13.3866 6.33794 13.0147L7.55007 11.8026C7.5983 11.7559 7.64187 11.7046 7.68388 11.6548C7.7259 11.605 7.76324 11.5537 7.79903 11.5023C7.84726 11.4323 7.87683 11.3841 7.90484 11.3358C7.95307 11.2518 7.97486 11.2036 7.99664 11.1569L8.02154 11.1055C8.04176 11.0604 8.05732 11.0137 8.07444 10.9686L8.09311 10.9095C8.10867 10.8628 8.12112 10.8177 8.13201 10.771L8.14913 10.701C8.15846 10.6574 8.16624 10.6138 8.17402 10.5703L8.18492 10.4909C8.19114 10.4505 8.19425 10.4084 8.19736 10.3649L8.20048 10.284C8.20203 10.2388 8.20203 10.1968 8.20048 10.1564L8.19736 10.0692C8.19425 10.0288 8.19114 9.98988 8.18647 9.95253L8.076 9.47017C8.076 9.47017 8.05577 9.4126 8.05421 9.4126L7.99197 9.26634C7.99197 9.26322 7.96708 9.21188 7.96708 9.20876L7.85038 9.00493C7.80525 8.93335 7.78036 8.90068 7.75546 8.868L7.71345 8.81043C7.65121 8.73418 7.60297 8.67972 7.55007 8.62682L5.75911 6.83586C5.70621 6.78296 5.65019 6.73317 5.59106 6.68493L5.53038 6.63981C5.48059 6.60246 5.44791 6.57757 5.41679 6.55578C5.41368 6.55423 5.3421 6.51222 5.34055 6.51066C5.28764 6.47798 5.26119 6.46087 5.23318 6.44686L5.17872 6.42041C5.10404 6.38462 5.07292 6.36906 5.0418 6.35662L4.63568 6.23058C4.60456 6.22436 4.56877 6.21813 4.53143 6.21346L4.4334 6.1979C4.3945 6.19324 4.35404 6.19168 4.31514 6.18857L4.17822 6.1839L4.0195 6.18857C3.97749 6.19168 3.93392 6.19635 3.89191 6.20102L3.81567 6.21191C3.7721 6.21969 3.72542 6.22747 3.6803 6.2368C3.6803 6.2368 3.6165 6.25236 3.61494 6.25236C3.56826 6.26326 3.52314 6.2757 3.47957 6.28971L3.42044 6.31149C3.37221 6.32861 3.32553 6.34572 3.27885 6.36595C3.18238 6.41108 3.13414 6.43442 3.08746 6.45931C3.00032 6.5091 2.95209 6.53867 2.90541 6.57134C2.82916 6.62425 2.77937 6.66159 2.73114 6.70205C2.67979 6.74406 2.63 6.78763 2.58176 6.83586C1.6466 7.72745 1.1269 9.05161 1.11134 10.5749C1.08022 13.4691 2.81205 16.7989 5.98629 19.9483C9.10918 23.0961 12.4126 24.8263 15.2896 24.8263C16.8456 24.8263 18.1962 24.3066 19.0925 23.3653C19.15 23.3077 19.1936 23.2579 19.2356 23.2081C19.2761 23.1583 19.315 23.107 19.3508 23.0556C19.4006 22.9856 19.4286 22.9358 19.4581 22.886C19.5064 22.802 19.5282 22.7553 19.5499 22.7086M19.5733 22.6588C19.5935 22.6137 19.6106 22.567 19.6262 22.5203L19.5733 22.6588Z" fill="black"/>
<path d="M12.3122 5.30778C12.1361 5.30778 11.9633 5.22444 11.855 5.06889C11.6806 4.81667 11.7428 4.47056 11.995 4.29556C15.8467 1.62333 20.3694 0.210556 25.0744 0.210556C29.0561 0.210556 32.9794 1.24556 36.4194 3.20333C36.6861 3.355 36.7794 3.69445 36.6278 3.96111C36.4761 4.22778 36.1344 4.32056 35.8706 4.16945C32.5967 2.30667 28.8639 1.32222 25.0744 1.32222C20.5967 1.32222 16.2928 2.66611 12.6278 5.20889C12.5317 5.27556 12.4211 5.30778 12.3122 5.30778Z" fill="black"/>
<path d="M10.1167 40.4344C9.98444 40.4344 9.85222 40.3878 9.74611 40.2922C4.88889 35.9378 2.10278 29.7017 2.10278 23.1828C2.10278 22.8761 2.35167 22.6272 2.65833 22.6272C2.965 22.6272 3.21389 22.8761 3.21389 23.1828C3.21389 29.3867 5.865 35.3217 10.4878 39.4661C10.7161 39.6706 10.7356 40.0217 10.5306 40.2506C10.4211 40.3722 10.2694 40.4344 10.1167 40.4344Z" fill="black"/>
<path d="M40.0294 40.4367C39.8772 40.4367 39.7256 40.3744 39.6156 40.2517C39.4111 40.0233 39.43 39.6722 39.6589 39.4672C43.5011 36.0244 46.01 31.3294 46.7228 26.2467C46.7656 25.9428 47.0461 25.7294 47.35 25.7733C47.6539 25.8156 47.8661 26.0967 47.8233 26.4006C47.0739 31.7422 44.4378 36.6767 40.4006 40.295C40.2939 40.39 40.1617 40.4367 40.0294 40.4367Z" fill="black"/>
<path d="M35.8828 15.1489H35.0383C34.7311 15.1489 34.4828 14.9 34.4828 14.5933C34.4828 14.2867 34.7311 14.0378 35.0383 14.0378H35.8828C36.19 14.0378 36.4383 14.2867 36.4383 14.5933C36.4383 14.9 36.19 15.1489 35.8828 15.1489Z" fill="black"/>
<path d="M40.3272 15.1489H39.4828C39.1756 15.1489 38.9272 14.9 38.9272 14.5933C38.9272 14.2867 39.1756 14.0378 39.4828 14.0378H40.3272C40.6344 14.0378 40.8828 14.2867 40.8828 14.5933C40.8828 14.9 40.6344 15.1489 40.3272 15.1489Z" fill="black"/>
<path d="M44.7717 15.1489H43.9272C43.62 15.1489 43.3717 14.9 43.3717 14.5933C43.3717 14.2867 43.62 14.0378 43.9272 14.0378H44.7717C45.0789 14.0378 45.3272 14.2867 45.3272 14.5933C45.3272 14.9 45.0789 15.1489 44.7717 15.1489Z" fill="black"/>
</g>
<defs>
<clipPath id="clip0_203_393">
<rect width="50" height="50" fill="white"/>
</clipPath>
</defs>
</svg>
