<svg width="50" height="50" viewBox="0 0 50 50" fill="none" xmlns="http://www.w3.org/2000/svg">
<path d="M31.9433 46.6667H18.0567C16.4678 46.6667 15.18 45.3789 15.18 43.79V6.21C15.18 4.62111 16.4678 3.33333 18.0567 3.33333H31.9433C33.5322 3.33333 34.82 4.62111 34.82 6.21V43.7906C34.82 45.3789 33.5322 46.6667 31.9433 46.6667Z" fill="#3FCF9B"/>
<path d="M38.0805 29.0583H28.7978C28.5539 29.0583 28.3378 28.8989 28.2667 28.6656L25.2111 18.6767H22.3967C22.09 18.6767 21.8411 18.4278 21.8411 18.1211C21.8411 17.8144 22.09 17.5656 22.3967 17.5656H25.6222C25.8661 17.5656 26.0822 17.725 26.1533 17.9589L29.2089 27.9478H37.7116L40.2978 21.7911H31.7655C31.4583 21.7911 31.21 21.5422 31.21 21.2356C31.21 20.9289 31.4583 20.68 31.7655 20.68H41.1339C41.32 20.68 41.4933 20.7728 41.5966 20.9278C41.7 21.0828 41.7183 21.2789 41.6461 21.4506L38.5928 28.7183C38.5061 28.9239 38.3039 29.0583 38.0805 29.0583Z" fill="black"/>
<path d="M28.675 33.5539C29.419 33.5539 30.0222 32.9507 30.0222 32.2067C30.0222 31.4626 29.419 30.8594 28.675 30.8594C27.9309 30.8594 27.3278 31.4626 27.3278 32.2067C27.3278 32.9507 27.9309 33.5539 28.675 33.5539Z" fill="black"/>
<path d="M37.8972 33.5539C38.6413 33.5539 39.2444 32.9507 39.2444 32.2067C39.2444 31.4626 38.6413 30.8594 37.8972 30.8594C37.1532 30.8594 36.55 31.4626 36.55 32.2067C36.55 32.9507 37.1532 33.5539 37.8972 33.5539Z" fill="black"/>
<path d="M21.7139 29.0583H13.2583C12.9516 29.0583 12.7028 28.81 12.7028 28.5028C12.7028 28.1956 12.9516 27.9472 13.2583 27.9472H21.7139C22.0205 27.9472 22.2694 28.1956 22.2694 28.5028C22.2694 28.81 22.0211 29.0583 21.7139 29.0583Z" fill="black"/>
<path d="M20.4494 23.8672H8.8661C8.55944 23.8672 8.31055 23.6183 8.31055 23.3117C8.31055 23.005 8.55944 22.7561 8.8661 22.7561H20.4494C20.7561 22.7561 21.005 23.005 21.005 23.3117C21.005 23.6183 20.7561 23.8672 20.4494 23.8672Z" fill="black"/>
<path d="M25.8445 46.1111H24.1556C23.8489 46.1111 23.6 45.8628 23.6 45.5556C23.6 45.2483 23.8489 45 24.1556 45H25.8439C26.1511 45 26.3995 45.2483 26.3995 45.5556C26.3995 45.8628 26.1511 46.1111 25.8445 46.1111Z" fill="black"/>
<path d="M22.0889 5H21.2444C20.9378 5 20.6889 4.75111 20.6889 4.44444C20.6889 4.13778 20.9378 3.88889 21.2444 3.88889H22.0889C22.3955 3.88889 22.6444 4.13778 22.6444 4.44444C22.6444 4.75111 22.3955 5 22.0889 5Z" fill="black"/>
<path d="M28.7555 5H24.5778C24.2711 5 24.0222 4.75111 24.0222 4.44444C24.0222 4.13778 24.2711 3.88889 24.5778 3.88889H28.7555C29.0628 3.88889 29.3111 4.13778 29.3111 4.44444C29.3111 4.75111 29.0628 5 28.7555 5Z" fill="black"/>
<path d="M12.0942 18.6761C11.7876 18.6761 11.5387 18.4272 11.5387 18.1206V3.70722C11.5387 1.66333 13.2014 0 15.2453 0H34.7537C36.7981 0 38.4609 1.66333 38.4609 3.70722V17.4306C38.4609 17.7372 38.2126 17.9861 37.9053 17.9861C37.5981 17.9861 37.3498 17.7372 37.3498 17.4306V3.70722C37.3498 2.27556 36.1853 1.11111 34.7542 1.11111H15.2453C13.8137 1.11111 12.6492 2.27556 12.6492 3.70722V18.1206C12.6498 18.4272 12.4009 18.6761 12.0942 18.6761Z" fill="black"/>
<path d="M34.7544 50H15.2456C13.2017 50 11.5383 48.3372 11.5383 46.2928V32.6678C11.5383 32.3606 11.7872 32.1122 12.0939 32.1122C12.4006 32.1122 12.6494 32.3606 12.6494 32.6678V46.2928C12.6494 47.7239 13.8139 48.8889 15.2456 48.8889H34.7539C36.185 48.8889 37.35 47.7239 37.35 46.2928V37.195C37.35 36.8878 37.5983 36.6394 37.9056 36.6394C38.2128 36.6394 38.4611 36.8878 38.4611 37.195V46.2928C38.4611 48.3372 36.7983 50 34.7544 50Z" fill="black"/>
</svg>
